Coordinates
version=1
nRows=14
nColumns=32
inDegrees=yes

Units are S.I. units (second, meters, Newtons, ...)
If the header above contains a line with 'inDegrees', this indicates whether rotational values are in degrees (yes) or radians (no).

endheader
time	pelvis_tilt	pelvis_list	pelvis_rotation	pelvis_tx	pelvis_ty	pelvis_tz	hip_flexion_r	hip_adduction_r	hip_rotation_r	knee_angle_r	ankle_angle_r	subtalar_angle_r	mtp_angle_r	hip_flexion_l	hip_adduction_l	hip_rotation_l	knee_angle_l	ankle_angle_l	subtalar_angle_l	mtp_angle_l	lumbar_extension	lumbar_bending	lumbar_rotation	arm_flex_r	arm_add_r	arm_rot_r	elbow_flex_r	arm_flex_l	arm_add_l	arm_rot_l	elbow_flex_l
      6.58000000	      4.20443163	     -2.39785986	    -90.00000018	      0.00474888	      0.99412870	      0.91915220	     14.34505123	     -7.25934754	     -8.87740595	    -61.29770451	     -5.48846390	    -10.00993178	      0.00000000	     12.94163581	      5.40083390	     -6.07959036	    -18.88484548	      2.11961288	     -9.11140888	      0.00000000	     -8.64952511	     -5.39463950	      4.30744719	      0.00000000	      0.00000000	      0.00000000	      0.00000000	      0.00000000	      0.00000000	      0.00000000	      0.00000000
      6.59000000	      4.31573747	     -2.50204523	    -90.00000018	      0.00570873	      0.99474968	      0.92500232	     15.47898480	     -7.80807845	     -9.35978607	    -62.10130934	     -4.38659962	    -11.39810273	      0.00000000	     12.33130063	      5.58774993	     -6.25875595	    -18.64100029	      2.40126457	     -8.98394335	      0.00000000	     -8.88846461	     -5.41577084	      4.24344609	      0.00000000	      0.00000000	      0.00000000	      0.00000000	      0.00000000	      0.00000000	      0.00000000	      0.00000000
      6.60000000	      4.34697595	     -2.61785103	    -90.00000018	      0.00671137	      0.99551357	      0.93090160	     16.45786378	     -8.25747070	     -9.91944313	    -62.33100256	     -3.64248431	    -12.53227768	      0.00000000	     11.76851143	      5.69163559	     -6.35580572	    -18.56405741	      2.62298891	     -8.82349493	      0.00000000	     -9.13530430	     -5.32862007	      4.16940341	      0.00000000	      0.00000000	      0.00000000	      0.00000000	      0.00000000	      0.00000000	      0.00000000	      0.00000000
      6.61000000	      4.34802667	     -2.70103853	    -90.00000018	      0.00720709	      0.99622328	      0.93674413	     17.43664727	     -8.44001573	    -10.16354612	    -62.21100129	     -3.01920098	    -13.66454011	      0.00000000	     11.18914163	      5.74621256	     -6.37436004	    -18.37125864	      2.93856642	     -8.68476174	      0.00000000	     -9.37231055	     -5.27588745	      4.13019653	      0.00000000	      0.00000000	      0.00000000	      0.00000000	      0.00000000	      0.00000000	      0.00000000	      0.00000000
      6.62000000	      4.27421500	     -2.76549923	    -90.00000018	      0.00760870	      0.99694239	      0.94250179	     18.34817563	     -8.42000053	    -10.31396640	    -61.66057264	     -2.43981064	    -14.50926224	      0.00000000	     10.67050527	      5.71842159	     -6.35579288	    -18.23873347	      3.20236088	     -8.59273291	      0.00000000	     -9.59745111	     -5.13535960	      4.10123765	      0.00000000	      0.00000000	      0.00000000	      0.00000000	      0.00000000	      0.00000000	      0.00000000	      0.00000000
      6.63000000	      4.19712812	     -2.79952035	    -90.00000018	      0.00776011	      0.99762132	      0.94822937	     19.21915880	     -8.26765131	    -10.33932587	    -60.76799692	     -1.71286720	    -15.07391722	      0.00000000	     10.16105683	      5.68237348	     -6.19973967	    -18.05691300	      3.46386695	     -8.56352220	      0.00000000	     -9.78821633	     -5.03908985	      4.07596391	      0.00000000	      0.00000000	      0.00000000	      0.00000000	      0.00000000	      0.00000000	      0.00000000	      0.00000000
      6.64000000	      4.13121150	     -2.84636884	    -90.00000018	      0.00806112	      0.99829157	      0.95401219	     19.99009932	     -8.09398135	    -10.31707406	    -59.56880773	     -0.77412709	    -15.53422711	      0.00000000	      9.64305630	      5.68218445	     -5.86715843	    -17.92229537	      3.75936075	     -8.57368922	      0.00000000	     -9.99066454	     -4.91204403	      4.05915811	      0.00000000	      0.00000000	      0.00000000	      0.00000000	      0.00000000	      0.00000000	      0.00000000	      0.00000000
      6.65000000	      4.11486789	     -2.88070118	    -90.00000018	      0.00798939	      0.99899251	      0.95986007	     20.70318369	     -7.89034699	    -10.21244138	    -58.09477170	     -0.10340312	    -15.70787173	      0.00000000	      9.10368640	      5.71644879	     -5.48985217	    -17.73321117	      3.98036325	     -8.61877893	      0.00000000	    -10.14662799	     -4.91937404	      4.02183504	      0.00000000	      0.00000000	      0.00000000	      0.00000000	      0.00000000	      0.00000000	      0.00000000	      0.00000000
      6.66000000	      4.10933938	     -2.90360900	    -90.00000018	      0.00808224	      0.99959243	      0.96570570	     21.33957074	     -7.70369280	    -10.09418573	    -56.37873048	      0.48768817	    -15.77989109	      0.00000000	      8.54329175	      5.78379759	     -5.11225713	    -17.44742648	      4.20548510	     -8.75655936	      0.00000000	    -10.29567621	     -4.88703992	      3.97669865	      0.00000000	      0.00000000	      0.00000000	      0.00000000	      0.00000000	      0.00000000	      0.00000000	      0.00000000
      6.67000000	      4.03712877	     -3.09352805	    -90.00000018	      0.00820868	      1.00040565	      0.97154063	     21.66791060	     -7.47699384	    -10.13833782	    -54.39456333	      1.22596510	    -15.74588595	      0.00000000	      7.82508673	      5.79946774	     -4.62133962	    -17.21332251	      4.45229766	     -9.18766366	      0.00000000	    -10.63621841	     -4.76327599	      3.93998682	      0.00000000	      0.00000000	      0.00000000	      0.00000000	      0.00000000	      0.00000000	      0.00000000	      0.00000000
      6.68000000	      4.05757988	     -3.18735142	    -90.00000018	      0.00813553	      1.00105392	      0.97739588	     22.06671484	     -7.28547430	    -10.00446688	    -52.31572125	      1.55255748	    -15.65293746	      0.00000000	      7.14293595	      5.88823159	     -4.21712539	    -16.84688213	      4.54909378	     -9.48835802	      0.00000000	    -10.85302115	     -4.77758600	      3.84776555	      0.00000000	      0.00000000	      0.00000000	      0.00000000	      0.00000000	      0.00000000	      0.00000000	      0.00000000
      6.69000000	      4.19055228	     -3.12732054	    -90.00000018	      0.00779598	      1.00126549	      0.98303727	     22.64850586	     -7.14954079	     -9.67619100	    -50.21366805	      1.56741836	    -15.53094897	      0.00000000	      6.70237962	      6.04936086	     -4.03332408	    -16.59329964	      4.66261860	     -9.60354792	      0.00000000	    -10.91502867	     -4.95266407	      3.71068781	      0.00000000	      0.00000000	      0.00000000	      0.00000000	      0.00000000	      0.00000000	      0.00000000	      0.00000000
      6.70000000	      4.12778257	     -3.17044188	    -90.00000018	      0.00781456	      1.00177619	      0.98896501	     22.88387713	     -6.89931231	     -9.66223940	    -47.72117205	      1.56792690	    -15.29209126	      0.00000000	      6.08868715	      6.04910081	     -3.63285890	    -16.27439015	      4.76052745	     -9.92956256	      0.00000000	    -11.06754802	     -4.81620421	      3.61831020	      0.00000000	      0.00000000	      0.00000000	      0.00000000	      0.00000000	      0.00000000	      0.00000000	      0.00000000
      6.71000000	      4.30851824	     -3.03716787	    -90.00000018	      0.00748278	      1.00173669	      0.99470966	     23.35401576	     -6.83469521	     -9.35400915	    -45.28719570	      1.33937697	    -14.97985570	      0.00000000	      5.69340627	      6.25166440	     -3.57998900	    -15.95406271	      4.90244604	    -10.03012010	      0.00000000	    -11.04037656	     -5.01887728	      3.43966897	      0.00000000	      0.00000000	      0.00000000	      0.00000000	      0.00000000	      0.00000000	      0.00000000	      0.00000000
